<svg width="100" height="125" viewBox="0 0 100 125" fill="none" xmlns="http://www.w3.org/2000/svg">
<path d="M50 27C55.5228 27 60 22.5228 60 17C60 11.4772 55.5228 7 50 7C44.4772 7 40 11.4772 40 17C40 22.5228 44.4772 27 50 27Z" fill="black"/>
<path d="M50 59C55.5228 59 60 54.5228 60 49C60 43.4772 55.5228 39 50 39C44.4772 39 40 43.4772 40 49C40 54.5228 44.4772 59 50 59Z" fill="black"/>
<path d="M50 93C55.5228 93 60 88.5228 60 83C60 77.4772 55.5228 73 50 73C44.4772 73 40 77.4772 40 83C40 88.5228 44.4772 93 50 93Z" fill="black"/>
</svg>
