<svg width="32" height="32" viewBox="0 0 32 32" fill="none" xmlns="http://www.w3.org/2000/svg">
<path d="M9.14288 7.14057V9.13828H4.85488C4.17289 9.13828 3.51884 9.4092 3.0366 9.89144C2.55436 10.3737 2.28345 11.0277 2.28345 11.7097V24.8526C2.28345 25.5346 2.55436 26.1886 3.0366 26.6708C3.51884 27.1531 4.17289 27.424 4.85488 27.424H27.1452C27.8271 27.424 28.4812 27.1531 28.9634 26.6708C29.4457 26.1886 29.7166 25.5346 29.7166 24.8526V11.7097C29.7166 11.0277 29.4457 10.3737 28.9634 9.89144C28.4812 9.4092 27.8271 9.13828 27.1452 9.13828H22.8595V7.14057C22.8595 6.45859 22.5885 5.80453 22.1063 5.3223C21.6241 4.84006 20.97 4.56914 20.288 4.56914H11.7143C11.0323 4.56914 10.3783 4.84006 9.89603 5.3223C9.41379 5.80453 9.14288 6.45859 9.14288 7.14057V7.14057ZM11.7143 6.28343H20.288C20.5153 6.28343 20.7334 6.37373 20.8941 6.53448C21.0549 6.69522 21.1452 6.91324 21.1452 7.14057V9.13828H10.8572V7.14057C10.8572 6.91324 10.9475 6.69522 11.1082 6.53448C11.269 6.37373 11.487 6.28343 11.7143 6.28343V6.28343ZM4.85488 10.8526H27.1452C27.3725 10.8526 27.5905 10.9429 27.7513 11.1036C27.912 11.2644 28.0023 11.4824 28.0023 11.7097V16H23.4332V14.5714C23.4332 14.3441 23.3429 14.1261 23.1821 13.9653C23.0214 13.8046 22.8033 13.7143 22.576 13.7143C22.3487 13.7143 22.1307 13.8046 21.9699 13.9653C21.8092 14.1261 21.7189 14.3441 21.7189 14.5714V16H10.2903V14.5714C10.2903 14.3441 10.2 14.1261 10.0393 13.9653C9.87851 13.8046 9.66049 13.7143 9.43316 13.7143C9.20583 13.7143 8.98782 13.8046 8.82707 13.9653C8.66632 14.1261 8.57602 14.3441 8.57602 14.5714V16H3.99773V11.7097C3.99773 11.4824 4.08804 11.2644 4.24878 11.1036C4.40953 10.9429 4.62755 10.8526 4.85488 10.8526V10.8526ZM21.7189 17.7143V19.1429C21.7189 19.3702 21.8092 19.5882 21.9699 19.7489C22.1307 19.9097 22.3487 20 22.576 20C22.8033 20 23.0214 19.9097 23.1821 19.7489C23.3429 19.5882 23.4332 19.3702 23.4332 19.1429V17.7143H28.0023V24.8526C28.0023 25.0799 27.912 25.2979 27.7513 25.4587C27.5905 25.6194 27.3725 25.7097 27.1452 25.7097H4.85488C4.62755 25.7097 4.40953 25.6194 4.24878 25.4587C4.08804 25.2979 3.99773 25.0799 3.99773 24.8526V17.7143H8.57602V19.1429C8.57602 19.3702 8.66632 19.5882 8.82707 19.7489C8.98782 19.9097 9.20583 20 9.43316 20C9.66049 20 9.87851 19.9097 10.0393 19.7489C10.2 19.5882 10.2903 19.3702 10.2903 19.1429V17.7143H21.7189Z" fill="black"/>
</svg>
